<svg width="32" height="32" viewBox="0 0 32 32" fill="none" xmlns="http://www.w3.org/2000/svg">
<g clip-path="url(#clip0_433_1719)">
<path d="M32 28C32 30.2 30.2 32 28 32H4C1.8 32 0 30.2 0 28V4C0 1.8 1.8 0 4 0H28C30.2 0 32 1.8 32 4V28Z" fill="#3C579E"/>
<path d="M17.2192 32V19.547H12.7742V15.1062H17.2202V11.0072C17.2202 6.873 19.6612 4.4375 23.3487 4.4375C25.1157 4.4375 26.5572 4.6265 26.9999 4.68525V9.3285L24.0314 9.32725C22.0259 9.32725 21.6507 10.322 21.6507 11.7203V15.1062H26.7897L26.0637 19.547H21.6507V32H17.2192Z" fill="white"/>
</g>
<defs>
<clipPath id="clip0_433_1719">
<rect width="32" height="32" fill="white"/>
</clipPath>
</defs>
</svg>
