<svg width="135" height="96" viewBox="0 0 135 96" fill="none" xmlns="http://www.w3.org/2000/svg">
<g clip-path="url(#clip0_2_176)">
<path fill-rule="evenodd" clip-rule="evenodd" d="M75.5029 16.3083L88.1106 22.566C88.1166 22.569 88.1227 22.5719 88.1287 22.5749L91 24V12.8325L90.9997 12.8324V2.0015C90.9997 0.223234 88.8528 -0.670694 87.5907 0.582104L74.9831 13.0974C74.9809 13.0996 74.9787 13.1018 74.9765 13.104L73 15.066L75.4959 16.3048C75.4982 16.306 75.5006 16.3071 75.5029 16.3083Z" fill="url(#paint0_linear_2_176)"/>
<path fill-rule="evenodd" clip-rule="evenodd" d="M58.4971 31.6917L45.8894 25.434C45.8834 25.431 45.8773 25.4281 45.8713 25.4251L43 24V35.1675L43.0003 35.1676V45.9985C43.0003 47.7768 45.1472 48.6707 46.4093 47.4179L59.0169 34.9026C59.0191 34.9004 59.0213 34.8982 59.0235 34.896L61 32.934L58.5041 31.6952C58.5018 31.694 58.4994 31.6929 58.4971 31.6917Z" fill="url(#paint1_linear_2_176)"/>
<path d="M91 23.7423L45.9164 0.503274C44.5853 -0.182857 43 0.783469 43 2.281V24L88.0761 47.4771C89.4076 48.1706 91 47.2046 91 45.7033V23.7423Z" fill="url(#paint2_linear_2_176)"/>
</g>
<g clip-path="url(#clip1_2_176)">
<path d="M1.316 96V86.2H2.814L8.96 93.746H8.218V86.2H10.024V96H8.526L2.38 88.454H3.122V96H1.316ZM14.33 90.274H19.202V91.772H14.33V90.274ZM14.47 94.474H20V96H12.65V86.2H19.804V87.726H14.47V94.474ZM20.7295 96L24.8595 90.316V91.688L20.9255 86.2H22.9835L25.9095 90.26L25.0695 90.274L27.9675 86.2H29.9415L26.0355 91.59V90.274L30.1935 96H28.0935L25.0135 91.688H25.8395L22.8015 96H20.7295ZM37.1617 90.708H42.0477V92.248H37.1617V90.708ZM37.3157 96H35.4957V86.2H42.6497V87.726H37.3157V96ZM48.8924 96.14C48.127 96.14 47.4224 96.014 46.7784 95.762C46.1344 95.51 45.5744 95.16 45.0984 94.712C44.6224 94.2547 44.2537 93.7227 43.9924 93.116C43.731 92.5 43.6004 91.828 43.6004 91.1C43.6004 90.372 43.731 89.7047 43.9924 89.098C44.2537 88.482 44.6224 87.95 45.0984 87.502C45.5744 87.0447 46.1344 86.69 46.7784 86.438C47.4224 86.186 48.1224 86.06 48.8784 86.06C49.6437 86.06 50.3437 86.186 50.9784 86.438C51.6224 86.69 52.1824 87.0447 52.6584 87.502C53.1344 87.95 53.503 88.482 53.7644 89.098C54.0257 89.7047 54.1564 90.372 54.1564 91.1C54.1564 91.828 54.0257 92.5 53.7644 93.116C53.503 93.732 53.1344 94.264 52.6584 94.712C52.1824 95.16 51.6224 95.51 50.9784 95.762C50.3437 96.014 49.6484 96.14 48.8924 96.14ZM48.8784 94.544C49.373 94.544 49.8304 94.46 50.2504 94.292C50.6704 94.124 51.0344 93.886 51.3424 93.578C51.6504 93.2607 51.8884 92.8967 52.0564 92.486C52.2337 92.066 52.3224 91.604 52.3224 91.1C52.3224 90.596 52.2337 90.1387 52.0564 89.728C51.8884 89.308 51.6504 88.944 51.3424 88.636C51.0344 88.3187 50.6704 88.076 50.2504 87.908C49.8304 87.74 49.373 87.656 48.8784 87.656C48.3837 87.656 47.9264 87.74 47.5064 87.908C47.0957 88.076 46.7317 88.3187 46.4144 88.636C46.1064 88.944 45.8637 89.308 45.6864 89.728C45.5184 90.1387 45.4344 90.596 45.4344 91.1C45.4344 91.5947 45.5184 92.052 45.6864 92.472C45.8637 92.892 46.1064 93.2607 46.4144 93.578C46.7224 93.886 47.0864 94.124 47.5064 94.292C47.9264 94.46 48.3837 94.544 48.8784 94.544ZM60.2995 96.14C58.9555 96.14 57.9009 95.762 57.1355 95.006C56.3795 94.25 56.0015 93.158 56.0015 91.73V86.2H57.8215V91.66C57.8215 92.668 58.0362 93.4007 58.4655 93.858C58.9042 94.3153 59.5202 94.544 60.3135 94.544C61.1069 94.544 61.7182 94.3153 62.1475 93.858C62.5769 93.4007 62.7915 92.668 62.7915 91.66V86.2H64.5835V91.73C64.5835 93.158 64.2009 94.25 63.4355 95.006C62.6795 95.762 61.6342 96.14 60.2995 96.14ZM66.8524 96V86.2H68.3504L74.4964 93.746H73.7544V86.2H75.5604V96H74.0624L67.9164 88.454H68.6584V96H66.8524ZM77.9064 96V86.2H82.1904C83.2544 86.2 84.1877 86.4053 84.9904 86.816C85.7931 87.2267 86.4184 87.796 86.8664 88.524C87.3144 89.252 87.5384 90.1107 87.5384 91.1C87.5384 92.08 87.3144 92.9387 86.8664 93.676C86.4184 94.404 85.7931 94.9733 84.9904 95.384C84.1877 95.7947 83.2544 96 82.1904 96H77.9064ZM79.7264 94.46H82.1064C82.8437 94.46 83.4784 94.32 84.0104 94.04C84.5517 93.76 84.9671 93.368 85.2564 92.864C85.5551 92.36 85.7044 91.772 85.7044 91.1C85.7044 90.4187 85.5551 89.8307 85.2564 89.336C84.9671 88.832 84.5517 88.44 84.0104 88.16C83.4784 87.88 82.8437 87.74 82.1064 87.74H79.7264V94.46ZM87.6701 96L92.0801 86.2H93.8721L98.2961 96H96.3921L92.5981 87.166H93.3261L89.5461 96H87.6701ZM89.7001 93.732L90.1901 92.304H95.4821L95.9721 93.732H89.7001ZM101.25 96V87.74H98.0024V86.2H106.318V87.74H103.07V96H101.25ZM108.384 96V86.2H110.204V96H108.384ZM117.447 96.14C116.682 96.14 115.977 96.014 115.333 95.762C114.689 95.51 114.129 95.16 113.653 94.712C113.177 94.2547 112.808 93.7227 112.547 93.116C112.286 92.5 112.155 91.828 112.155 91.1C112.155 90.372 112.286 89.7047 112.547 89.098C112.808 88.482 113.177 87.95 113.653 87.502C114.129 87.0447 114.689 86.69 115.333 86.438C115.977 86.186 116.677 86.06 117.433 86.06C118.198 86.06 118.898 86.186 119.533 86.438C120.177 86.69 120.737 87.0447 121.213 87.502C121.689 87.95 122.058 88.482 122.319 89.098C122.58 89.7047 122.711 90.372 122.711 91.1C122.711 91.828 122.58 92.5 122.319 93.116C122.058 93.732 121.689 94.264 121.213 94.712C120.737 95.16 120.177 95.51 119.533 95.762C118.898 96.014 118.203 96.14 117.447 96.14ZM117.433 94.544C117.928 94.544 118.385 94.46 118.805 94.292C119.225 94.124 119.589 93.886 119.897 93.578C120.205 93.2607 120.443 92.8967 120.611 92.486C120.788 92.066 120.877 91.604 120.877 91.1C120.877 90.596 120.788 90.1387 120.611 89.728C120.443 89.308 120.205 88.944 119.897 88.636C119.589 88.3187 119.225 88.076 118.805 87.908C118.385 87.74 117.928 87.656 117.433 87.656C116.938 87.656 116.481 87.74 116.061 87.908C115.65 88.076 115.286 88.3187 114.969 88.636C114.661 88.944 114.418 89.308 114.241 89.728C114.073 90.1387 113.989 90.596 113.989 91.1C113.989 91.5947 114.073 92.052 114.241 92.472C114.418 92.892 114.661 93.2607 114.969 93.578C115.277 93.886 115.641 94.124 116.061 94.292C116.481 94.46 116.938 94.544 117.433 94.544ZM124.64 96V86.2H126.138L132.284 93.746H131.542V86.2H133.348V96H131.85L125.704 88.454H126.446V96H124.64Z" fill="black"/>
<path d="M2.33118 74.3721V76.0394H12.9068V74.3721H2.33118ZM1.4404 69.2068V77H3.25986V70.838H11.9781V76.9638H13.8923V69.2068H1.4404ZM9.40053 62.9723C11.2389 64.6034 13.3996 66.9232 14.3282 68.4456L15.8444 67.3945C14.8589 65.8721 12.6035 63.6247 10.803 62.0661L9.40053 62.9723ZM0.587533 67.8113C0.587533 67.4851 1.70574 66.9776 1.70574 66.9776V66.9232C3.69577 65.3646 5.83743 63.1354 7.61898 60.7612L5.81848 60.0181C4.41598 62.2292 2.25537 64.4947 1.57307 65.0928C0.947635 65.6727 0.473817 66.0533 0 66.1439C0.20848 66.597 0.511723 67.467 0.587533 67.8113ZM0.587533 67.8113C1.47831 67.5213 2.72919 67.4851 13.9302 66.9232C13.8544 66.5608 13.7786 65.8539 13.7597 65.3827L1.83841 65.8539L0.568581 66.4701L0.587533 67.8113Z" fill="black"/>
<path d="M27.3866 63.516V64.3859H30.9497V63.516H27.3866ZM27.3866 64.8934V65.7633H30.9497V64.8934H27.3866ZM24.6006 73.2484V74.3358H34.2096V73.2484H24.6006ZM26.8181 61.9936V62.9542H31.3857V61.9936H26.8181ZM28.448 67.1951H29.8126V68.21H28.448V67.1951ZM27.3487 66.3433V69.0618H30.9497V66.3433H27.3487ZM24.9228 71.4542V72.4691H34.4749V69.6237H23.7667V70.6567H32.8071V71.4542H24.9228ZM24.4111 71.4542C24.1836 72.3966 23.8804 73.5203 23.5771 74.3358H25.245C25.5103 73.5565 25.8136 72.451 26.0599 71.4542H24.4111ZM33.66 73.2484L33.641 73.4296C33.3757 74.7345 33.0914 75.4051 32.7502 75.6407C32.5418 75.7676 32.3333 75.7857 31.9353 75.7857C31.4425 75.7857 30.1916 75.7676 29.0166 75.6588C29.2819 76.0213 29.4714 76.565 29.5093 76.9456C30.7034 77 31.8595 77 32.447 77C33.1483 76.9819 33.6031 76.9094 34.0201 76.6013C34.5508 76.2026 34.9109 75.4051 35.2331 73.8827C35.3089 73.6834 35.3468 73.2484 35.3468 73.2484H33.66ZM18.8958 61.5586C19.8435 62.1205 21.0185 62.9723 21.5492 63.5885L22.6485 62.3017C22.0609 61.7036 20.8859 60.9243 19.9193 60.4168L18.8958 61.5586ZM18.4789 66.3977C19.4455 66.9051 20.6774 67.7207 21.227 68.2825L22.2694 66.9776C21.6819 66.4158 20.45 65.6727 19.4834 65.2196L18.4789 66.3977ZM18.8769 75.9126L20.4689 76.8006C21.227 75.0789 22.042 72.8859 22.6674 70.9829L21.2649 70.0949C20.5447 72.1791 19.5781 74.4989 18.8769 75.9126ZM25.4156 64.4041C25.7757 65.0021 26.1358 65.8177 26.2874 66.3252L27.1023 65.9627C26.9886 65.4915 26.5906 64.7122 26.2305 64.1322L25.4156 64.4041ZM25.5672 66.7601C25.8515 67.3945 26.0979 68.2281 26.1737 68.7537L26.9886 68.4275C26.9318 67.9019 26.6475 67.1045 26.3442 66.5064L25.5672 66.7601ZM22.8569 66.8326C22.7243 67.5938 22.5347 68.3913 22.1746 68.9893C22.4021 69.1162 22.819 69.3699 22.9896 69.533C23.3497 68.8987 23.634 67.9382 23.8046 67.0501L22.8569 66.8326ZM22.7622 63.8422C22.7622 63.6791 23.4066 63.4254 23.4066 63.4254V63.4072C24.0699 62.7004 24.7522 61.6674 25.2071 60.6706L24.1457 60.3262C23.8614 61.2868 23.1791 62.3561 22.9707 62.5917C22.7811 62.8635 22.6295 63.0448 22.3831 63.081C22.5158 63.2804 22.7053 63.6791 22.7622 63.8422ZM22.7622 63.8422C23.0086 63.7516 23.4634 63.6791 25.3777 63.5341C25.3777 63.3166 25.4535 62.936 25.5293 62.6642L23.3687 62.7729L22.7243 63.081L22.7622 63.8422ZM22.8001 66.307C22.8001 66.1258 23.5392 65.8721 23.5392 65.8721V65.8358C24.6385 64.9115 25.7188 63.5704 26.5338 62.3017L25.5293 61.8667C24.8659 63.1716 23.7098 64.549 23.3308 64.8934C22.9896 65.2377 22.7432 65.4733 22.44 65.5277C22.5727 65.7271 22.7622 66.1439 22.8001 66.307ZM22.8001 66.307C23.1033 66.1802 23.6151 66.0714 26.4769 65.709C26.3821 65.5096 26.3063 65.129 26.2684 64.8934L23.3308 65.2015L22.7432 65.5096L22.8001 66.307ZM24.1268 67.0139C24.3353 67.7207 24.4869 68.6269 24.5058 69.2068L25.3966 68.9168C25.3777 68.3731 25.2071 67.5032 24.9796 66.8145L24.1268 67.0139ZM28.0689 60.6162C28.3343 61.0693 28.6565 61.6855 28.7702 62.1023L30.0211 61.7761C29.8694 61.4136 29.5472 60.7793 29.263 60.3625L28.0689 60.6162ZM34.3233 64.3859C34.7024 65.0203 35.0814 65.8358 35.2331 66.3614L36.067 66.0352C35.9153 65.5277 35.5173 64.7122 35.1193 64.1141L34.3233 64.3859ZM34.456 66.742C34.7971 67.4851 35.1004 68.4638 35.1762 69.08L36.0101 68.7356C35.9153 68.1375 35.5932 67.1951 35.2331 66.4701L34.456 66.742ZM31.7647 66.7601C31.632 67.5213 31.4425 68.3188 31.0824 68.9168C31.3288 69.0437 31.7268 69.2974 31.8974 69.4787C32.2575 68.8262 32.5418 67.8657 32.7123 66.9776L31.7647 66.7601ZM31.6699 63.8241C31.6699 63.661 32.3143 63.3891 32.3143 63.3891V63.371C32.9777 62.6642 33.6789 61.6311 34.0959 60.6706L33.0535 60.29C32.7502 61.2687 32.0869 62.3198 31.8784 62.5736C31.6889 62.8454 31.5183 63.0267 31.3098 63.0448C31.4236 63.2623 31.6131 63.661 31.6699 63.8241ZM31.6699 63.8241C31.9163 63.7335 32.3712 63.661 34.2854 63.516C34.2854 63.2985 34.3423 62.9179 34.4181 62.6461L32.2764 62.7548L31.632 63.0629L31.6699 63.8241ZM31.7268 66.2889C31.7268 66.1077 32.447 65.8358 32.447 65.8358V65.8177C33.5463 64.8753 34.6266 63.5522 35.4415 62.2655L34.4181 61.8486C33.7547 63.1535 32.6176 64.5309 32.2385 64.8571C31.9163 65.2196 31.651 65.4552 31.3477 65.4915C31.4804 65.709 31.6699 66.1077 31.7268 66.2889ZM31.7268 66.2889C32.0111 66.162 32.5228 66.0533 35.3847 65.6727C35.3089 65.4733 35.2141 65.1109 35.1762 64.8571L32.2385 65.1834L31.651 65.4915L31.7268 66.2889ZM32.9966 67.0139C33.2241 67.7751 33.3946 68.7719 33.3946 69.3881L34.3044 69.0981C34.2854 68.5181 34.0959 67.5576 33.8306 66.7964L32.9966 67.0139Z" fill="black"/>
<path d="M38.7203 67.5213V69.2249H55.5314V67.5213H38.7203ZM40.1039 63.0448V64.7484H54.2047V63.0448H40.1039ZM46.1119 60.1994V77H48.0072V60.1994H46.1119ZM45.7328 68.4638C44.1408 70.9286 41.0515 73.4115 38.1328 74.6258C38.5687 74.9883 39.1563 75.6588 39.4595 76.0938C42.4161 74.6439 45.4865 71.9616 47.287 69.08L45.7328 68.4638ZM48.4052 68.4638L46.9079 69.08C48.7274 71.9254 51.7598 74.662 54.6975 76.1119C55.0007 75.6588 55.5882 74.9701 56.0052 74.6258C53.1054 73.4115 49.9972 70.9286 48.4052 68.4638Z" fill="black"/>
<path d="M58.6586 62.6098V64.2772H75.0716V62.6098H58.6586ZM65.8037 60.1994V77H67.6801V60.1994H65.8037ZM66.0122 68.3006C64.3633 70.9829 61.1603 73.5565 57.9384 74.7889C58.3364 75.1333 58.9239 75.822 59.2082 76.2569C62.487 74.7889 65.6521 71.9979 67.5095 68.8625L66.0122 68.3006ZM67.6042 68.3913L66.107 68.9531C67.9454 72.0704 71.0726 74.8433 74.3514 76.2751C74.6546 75.7857 75.2232 75.0789 75.6781 74.7164C72.4182 73.5384 69.2342 71.0373 67.6042 68.3913ZM61.0845 67.4851C61.9753 68.2463 63.1504 69.3156 63.7189 69.968L64.913 68.7719C64.3254 68.1375 63.1125 67.1226 62.2406 66.4158L61.0845 67.4851ZM61.8616 64.5672C61.3119 66.8507 60.1369 68.8081 58.4311 70.0043C58.8481 70.258 59.5304 70.8198 59.8336 71.1279C61.5962 69.7324 62.9229 67.5213 63.6052 64.8753L61.8616 64.5672ZM70.1818 67.5394C71.4327 68.5181 73.1574 69.8955 73.9534 70.7292L75.2043 69.5512C74.3514 68.7356 72.5888 67.4126 71.3569 66.5245L70.1818 67.5394ZM70.8262 64.5672C70.4282 66.5064 69.5185 68.2463 68.1918 69.3156C68.6087 69.5149 69.3668 69.968 69.708 70.2399C71.0347 69.0075 72.0581 67.0864 72.5698 64.8571L70.8262 64.5672Z" fill="black"/>
<path d="M78.7295 61.7761V63.1898H94.3654V61.7761H78.7295ZM79.3739 75.097V76.5107H93.7969V75.097H79.3739ZM82.5579 64.2047V65.4552H90.4233V64.2047H82.5579ZM82.5579 66.5064V67.7569H90.4233V66.5064H82.5579ZM77.7818 68.8443V70.258H95.2373V68.8443H77.7818ZM81.9135 72.1066V73.484H91.1435V72.1066H81.9135ZM81.4966 60.1812V69.6237H83.2971V60.1812H81.4966ZM89.7978 60.1994V69.6237H91.6173V60.1994H89.7978ZM85.5524 70.7473V75.8945H87.3909V70.7473H85.5524ZM82.5769 69.2431C81.5534 70.7836 79.5444 72.2516 77.6113 72.9765C77.9903 73.2846 78.502 73.8827 78.7674 74.2815C80.8332 73.3753 82.8991 71.6535 84.0741 69.7687L82.5769 69.2431ZM90.537 69.2431L89.1155 69.7505C90.2527 71.5448 92.2617 73.2484 94.2707 74.0821C94.536 73.6834 95.0667 73.0672 95.4647 72.7591C93.4936 72.0885 91.5415 70.7111 90.537 69.2431Z" fill="black"/>
<path d="M101.226 65.5277V67.1226H111.176V65.5277H101.226ZM98.8951 69.3337V70.8923H113.546V69.3337H98.8951ZM98.0233 74.9701V76.5469H114.455V74.9701H98.0233ZM105.225 66.2708V75.7313H107.14V66.2708H105.225ZM100.354 71.6535C101.056 72.6503 101.776 74.0277 102.06 74.8795L103.614 74.2452C103.311 73.3753 102.534 72.0341 101.814 71.0736L100.354 71.6535ZM110.456 71.0736C110.02 72.0885 109.224 73.4659 108.599 74.3539L109.945 74.8977C110.608 74.0821 111.442 72.8316 112.162 71.6898L110.456 71.0736ZM106.893 61.033L105.415 61.7399C107.481 64.0416 110.93 66.1983 114.019 67.2495C114.304 66.8145 114.853 66.1258 115.27 65.7633C112.181 64.8934 108.675 62.9723 106.893 61.033ZM106.097 60C104.297 62.7004 100.828 64.7122 97.2462 65.7633C97.7011 66.1802 98.1939 66.8507 98.4592 67.3401C102.212 66.0352 105.68 63.806 107.784 60.7249L106.097 60Z" fill="black"/>
<path d="M120.975 66.5245H130.811V69.0437H120.975V66.5245ZM119.459 65.4009V70.1493H132.422V65.4009H119.459ZM122.624 63.4435V64.6034H129.276V63.4435H122.624ZM125.126 65.7996V69.6055H126.604V65.7996H125.126ZM121.904 66.9957C122.321 67.6301 122.681 68.5 122.794 69.0618L124.14 68.645C123.988 68.0832 123.59 67.2495 123.174 66.6333L121.904 66.9957ZM128.499 66.5608C128.291 67.177 127.874 68.1013 127.552 68.6994L128.784 69.0618C129.144 68.5362 129.58 67.7388 129.996 66.9595L128.499 66.5608ZM120.539 70.9104V77H122.302V72.0704H129.636V76.9275H131.475V70.9104H120.539ZM121.563 73.0672V74.2452H130.413V73.0672H121.563ZM121.582 75.2783V76.4382H130.413V75.2783H121.582ZM125.675 60.0725C123.932 62.2292 120.558 63.806 117.071 64.6578C117.374 64.9659 117.867 65.6546 118.056 65.9989C121.638 64.9296 125.22 63.1535 127.267 60.6343L125.675 60.0725ZM126.793 60.7974L125.448 61.323C127.381 63.3529 130.736 65.0565 133.863 65.8539C134.109 65.4552 134.621 64.839 135 64.5309C131.892 63.8785 128.518 62.4467 126.793 60.7974Z" fill="black"/>
</g>
<defs>
<linearGradient id="paint0_linear_2_176" x1="91.0001" y1="16.6585" x2="71.4008" y2="16.2839" gradientUnits="userSpaceOnUse">
<stop stop-color="#47DE78"/>
<stop offset="1" stop-color="#47DE78" stop-opacity="0"/>
</linearGradient>
<linearGradient id="paint1_linear_2_176" x1="42.9999" y1="31.3415" x2="62.5992" y2="31.7161" gradientUnits="userSpaceOnUse">
<stop stop-color="#6FD7FD"/>
<stop offset="1" stop-color="#6FD7FD" stop-opacity="0"/>
</linearGradient>
<linearGradient id="paint2_linear_2_176" x1="67" y1="-1" x2="67" y2="49" gradientUnits="userSpaceOnUse">
<stop stop-color="#6FD7FD"/>
<stop offset="1" stop-color="#47DE78"/>
</linearGradient>
<clipPath id="clip0_2_176">
<rect width="48" height="48" fill="white" transform="translate(43)"/>
</clipPath>
<clipPath id="clip1_2_176">
<rect width="135" height="48" fill="white" transform="translate(0 48)"/>
</clipPath>
</defs>
</svg>
