<svg width="48" height="48" viewBox="0 0 48 48" fill="none" xmlns="http://www.w3.org/2000/svg">
<g clip-path="url(#clip0_27_630)">
<path fill-rule="evenodd" clip-rule="evenodd" d="M32.5029 16.3083L45.1106 22.566C45.1166 22.569 45.1227 22.5719 45.1287 22.5749L48 24V12.8325L47.9997 12.8324V2.0015C47.9997 0.223234 45.8528 -0.670694 44.5907 0.582104L31.9831 13.0974C31.9809 13.0996 31.9787 13.1018 31.9765 13.104L30 15.066L32.4959 16.3048C32.4982 16.306 32.5006 16.3071 32.5029 16.3083Z" fill="url(#paint0_linear_27_630)"/>
<path fill-rule="evenodd" clip-rule="evenodd" d="M15.4971 31.6917L2.88943 25.434C2.88339 25.431 2.87734 25.4281 2.87129 25.4251L-3.8147e-06 24V35.1675L0.000259399 35.1676V45.9985C0.000259399 47.7768 2.14723 48.6707 3.40927 47.4179L16.0169 34.9026C16.0191 34.9004 16.0213 34.8982 16.0235 34.896L18 32.934L15.5041 31.6952C15.5018 31.694 15.4994 31.6929 15.4971 31.6917Z" fill="url(#paint1_linear_27_630)"/>
<path d="M48 23.7423L2.91635 0.503274C1.58526 -0.182857 0 0.783469 0 2.281V24L45.0761 47.4771C46.4076 48.1706 48 47.2046 48 45.7033V23.7423Z" fill="url(#paint2_linear_27_630)"/>
</g>
<defs>
<linearGradient id="paint0_linear_27_630" x1="48.0001" y1="16.6585" x2="28.4008" y2="16.2839" gradientUnits="userSpaceOnUse">
<stop stop-color="#47DE78"/>
<stop offset="1" stop-color="#47DE78" stop-opacity="0"/>
</linearGradient>
<linearGradient id="paint1_linear_27_630" x1="-0.000116922" y1="31.3415" x2="19.5992" y2="31.7161" gradientUnits="userSpaceOnUse">
<stop stop-color="#6FD7FD"/>
<stop offset="1" stop-color="#6FD7FD" stop-opacity="0"/>
</linearGradient>
<linearGradient id="paint2_linear_27_630" x1="24" y1="-1" x2="24" y2="49" gradientUnits="userSpaceOnUse">
<stop stop-color="#6FD7FD"/>
<stop offset="1" stop-color="#47DE78"/>
</linearGradient>
<clipPath id="clip0_27_630">
<rect width="48" height="48" fill="white"/>
</clipPath>
</defs>
</svg>
